<mxfile host="Electron" modified="2024-05-31T13:48:04.787Z" agent="Mozilla/5.0 (Macintosh; Intel Mac OS X 10_15_7) AppleWebKit/537.36 (KHTML, like Gecko) draw.io/21.8.2 Chrome/114.0.5735.289 Electron/25.8.1 Safari/537.36" etag="ySSECSgV-gU2-XiisKlM" version="21.8.2" type="device">
  <diagram name="Page-1" id="0L3ZwIw9Xs426cPdidTE">
    <mxGraphModel dx="1469" dy="1183" grid="0" gridSize="10" guides="1" tooltips="1" connect="1" arrows="1" fold="1" page="0" pageScale="1" pageWidth="1169" pageHeight="827" math="0" shadow="0">
      <root>
        <mxCell id="0" />
        <mxCell id="1" parent="0" />
        <mxCell id="yFHXOLLcr4Xeabn27MLC-1" value="Report Designer" style="rounded=0;whiteSpace=wrap;html=1;fontSize=16;fillColor=#dae8fc;strokeColor=#6c8ebf;" parent="1" vertex="1">
          <mxGeometry x="-80" y="-40" width="218" height="60" as="geometry" />
        </mxCell>
        <mxCell id="yFHXOLLcr4Xeabn27MLC-2" value="Report" style="rounded=0;whiteSpace=wrap;html=1;fontSize=16;fillColor=#d5e8d4;strokeColor=#82b366;" parent="1" vertex="1">
          <mxGeometry x="-80" y="40" width="219" height="60" as="geometry" />
        </mxCell>
        <mxCell id="yFHXOLLcr4Xeabn27MLC-3" value="Bands" style="rounded=0;whiteSpace=wrap;html=1;fontSize=16;fillColor=#d5e8d4;strokeColor=#82b366;" parent="1" vertex="1">
          <mxGeometry x="-80" y="120" width="100" height="60" as="geometry" />
        </mxCell>
        <mxCell id="yFHXOLLcr4Xeabn27MLC-4" value="Datasets" style="rounded=0;whiteSpace=wrap;html=1;fontSize=16;fillColor=#d5e8d4;strokeColor=#82b366;" parent="1" vertex="1">
          <mxGeometry x="39" y="120" width="100" height="60" as="geometry" />
        </mxCell>
        <mxCell id="yFHXOLLcr4Xeabn27MLC-5" value="Report&lt;br&gt;Engine" style="rounded=0;whiteSpace=wrap;html=1;fontSize=16;fillColor=#dae8fc;strokeColor=#6c8ebf;" parent="1" vertex="1">
          <mxGeometry x="158" y="-40" width="131" height="220" as="geometry" />
        </mxCell>
        <mxCell id="yFHXOLLcr4Xeabn27MLC-6" value="Report &lt;br&gt;Template" style="rounded=0;whiteSpace=wrap;html=1;fontSize=16;fillColor=#f5f5f5;fontColor=#333333;strokeColor=#666666;" parent="1" vertex="1">
          <mxGeometry x="-219" y="120" width="120" height="60" as="geometry" />
        </mxCell>
      </root>
    </mxGraphModel>
  </diagram>
</mxfile>
